<?xml version="1.0" encoding="UTF-8" standalone="no"?><!DOCTYPE svg PUBLIC "-//W3C//DTD SVG 1.1//EN" "http://www.w3.org/Graphics/SVG/1.1/DTD/svg11.dtd"><svg width="100%" height="100%" viewBox="0 0 123 72" version="1.1" xmlns="http://www.w3.org/2000/svg" xmlns:xlink="http://www.w3.org/1999/xlink" xml:space="preserve" xmlns:serif="http://www.serif.com/" style="fill-rule:evenodd;clip-rule:evenodd;stroke-linejoin:round;stroke-miterlimit:2;"><path d="M44.44,71.5l-44.44,0l2.92,-4.5l41.44,-63.98c0.23,-0.41 0.57,-0.77 0.99,-1.03c1.37,-0.85 3.16,-0.43 4.01,0.93l16.04,25.64l3.37,5.38l-1.75,2.7l-4.09,-6.54c-2.45,-0.73 -5.86,8.9 -8.45,8.53c-3.57,-0.51 -7.61,-12.43 -10.16,-9.32l-8.71,10.62l-9.13,-3.95l-21.13,32.6l40.97,-0l-1.88,2.92Zm78.44,-0.22l-67,-0l2.12,-3.27l15.57,-24.04l0.73,-1.13l13.78,-21.28c0.17,-0.3 0.41,-0.56 0.72,-0.75c0.99,-0.62 2.3,-0.31 2.91,0.68l11.65,18.61l17.42,27.83c0.05,0.07 0.1,0.14 0.14,0.22l1.96,3.13Zm-63.11,-2.12l59.29,-0l-17.49,-27.95c-1.78,-0.53 -4.25,6.46 -6.14,6.19c-2.59,-0.37 -5.53,-9.02 -7.38,-6.77l-6.32,7.71l-6.63,-2.87l-15.33,23.69Zm15.62,-69.16c4.6,-0 8.34,3.73 8.34,8.34c0,4.61 -3.73,8.34 -8.34,8.34c-4.6,-0 -8.34,-3.73 -8.34,-8.34c0,-4.61 3.73,-8.34 8.34,-8.34Z" style="fill-rule:nonzero;"/></svg>